<svg id="e7070e48-e862-4e7f-8a65-2d585ab6fe8c" data-name="图层 1" xmlns="http://www.w3.org/2000/svg" viewBox="0 0 420.6 398.1"><defs><style>.b6fd90a6-39aa-4810-a9ea-21673b961e3d{fill:#2fa3d4;}.e3e8590b-3915-460d-a7ce-a13d042ad897{fill:#31a4d5;}.bca39b6d-fe6c-4d3f-bdeb-6f7ca92e8557{fill:#30a4d6;}.fb0999b6-6669-4e93-9a5b-68172b2dc82d{fill:#30a4d5;}</style></defs><title>bilibili</title><path class="b6fd90a6-39aa-4810-a9ea-21673b961e3d" d="M509.2,319.3c-5.6-19.8-18.6-38.5-37.7-46-11.9-4.6-25-4.7-37.8-4.6-18.3,0-36.7.4-55.1.1-6.2-.1-7.1.3-3.3-4.7,7.2-9.4,17.5-17.4,25.9-25.7,2.8-2.7,5.6-5.5,6.9-9,3.2-8-3.5-18.2-12.1-18.5s-13.8,5.7-19.1,11.2l-31.5,33c-4.5,4.7-9.2,9.2-15,12.1s-19.8,2.6-26.4,2.7-18.5.2-23.5-1.4-9.2-5.7-13-9.7c-11.1-11.6-22.2-23.1-33.2-34.7-4.7-4.9-9.7-10-16.2-12.1s-14.8-.3-17.6,5.9c-1.8,3.9-1,8.6,1,12.3s5,6.9,8,9.9l15.7,15.5c3.3,3.3,13.5,9.9,8.4,13.1s-16.5,1-21.1,1c-7.2,0-14.8-.9-22-.9-12.6,0-26-1.8-38.3.3-21.1,3.4-40.5,17.4-49.7,36.8-8.3,17.5-8.5,37.6-8.5,56.9l-.3,124.1c0,14.3,0,28.6,2.8,42.6,8,38.7,38.5,57.3,76.4,55.9a3.6,3.6,0,0,1,2.3.3c1,.7,1.2,2.1,1.4,3.3,1.9,11.5,13.3,20.6,24.9,19.8s21.6-11.3,21.9-22.9c0-3.5,139.1-.9,151.9-.6,6.9.2,9.8,1.9,12.1,8.2a24.9,24.9,0,0,0,10.7,12.4,22.5,22.5,0,0,0,13.4,3c8.6-.8,16.3-7.2,19.4-15.2s3.1-8.1,11.5-8c6.5,0,13,.1,19.4-1.4a56.2,56.2,0,0,0,18.8-8.1c20.5-13.6,32.6-39.4,32.6-63.7V412.9C513.2,382.5,517.6,349,509.2,319.3Zm-44,196.9a28.3,28.3,0,0,1-9.4,21.5,19.6,19.6,0,0,1-12.8,5.6c-16,.4-31.9.2-47.8.2H167.1c-8,0-14.3-3.4-19.1-9.5a29.4,29.4,0,0,1-5.5-12.8,21.9,21.9,0,0,1-.3-3.6q0-90.2.1-180.3a26.2,26.2,0,0,1,8-19.2,21.9,21.9,0,0,1,16.2-7.1q135.5.2,270.9,0c5.4,0,10.6.3,15.2,3.4a26.8,26.8,0,0,1,12.5,23.1c.3,27.3.2,54.6.2,81.9C465.3,451.7,465.3,483.9,465.2,516.2Z" transform="translate(-93.7 -210.9)"/><path class="e3e8590b-3915-460d-a7ce-a13d042ad897" d="M175.8,420.6c-.4.1-.6-.5-.7-1.1-.5-2.4-1.1-4.8-1.5-7.2-.9-4.2-1.7-8.4-2.5-12.6s-1.3-7.5-2.1-11.2a1.2,1.2,0,0,1,.9-1.4,19.8,19.8,0,0,1,2.6-.6l15.2-2.9c7.8-1.4,15.4-3.1,23.2-4.4,4.3-.7,8.6-1.8,13-2.7l11.2-2,19.8-3.9c1.4-.3,1.7.2,1.9,1.3.9,4.2,1.7,8.5,2.6,12.8s1.8,9.9,2.8,14.8a20.5,20.5,0,0,0,.7,3.4c.4.7-.6,1.2-1.3,1.3l-10.8,2.1-11.2,2.1-19.8,3.9c-3.9.8-7.9,1.3-11.8,2.1s-10.3,1.9-15.4,3.1-8.8,1.5-13.1,2.6A30.3,30.3,0,0,1,175.8,420.6Z" transform="translate(-93.7 -210.9)"/><path class="bca39b6d-fe6c-4d3f-bdeb-6f7ca92e8557" d="M439.3,388.6l-1.5,8.7c-.9,4.6-1.8,9.3-2.9,13.9-.5,2.6-.7,5.3-1.4,7.9s-.9,1.4-2,1.2l-7.6-1.3-19.7-3.8-13.3-2.7L377.6,410c-7.8-1.4-15.4-3.1-23.1-4.5a48,48,0,0,0-6.4-1.2c-1.4-.1-2-.7-1.7-2.2,1.1-5.2,2.1-10.4,3.1-15.6s1.5-7.9,2.2-11.9a18.3,18.3,0,0,0,.7-3.2c0-1,.8-1.1,1.6-.9l13.3,2.7,22.3,4.2,18.9,3.8,13.6,2.5c5.3,1.1,10.6,2.3,15.9,3.1C439.2,386.9,439.5,387.6,439.3,388.6Z" transform="translate(-93.7 -210.9)"/><path class="fb0999b6-6669-4e93-9a5b-68172b2dc82d" d="M327.7,498.6a27,27,0,0,1-14.9-4,46.6,46.6,0,0,1-8.1-6.4c-.8-.7-1.3-.8-2.1.1a33.3,33.3,0,0,1-15,9.4,28.8,28.8,0,0,1-10.5.8c-6.7-.6-12.3-3.7-17.5-7.7s-7.8-7.5-11.2-11.7c-.8-1.1-.8-1.9.4-2.6,3.8-2.5,7.7-4.8,11.5-7.4,1.4-.9,2.2-.3,2.9.7a36.2,36.2,0,0,0,9,8.9c3.2,2.2,6.8,3.5,10.7,2.4a14.9,14.9,0,0,0,5.7-3.3c3.9-3.6,6.8-7.9,9.6-12.3,1.4-2.3,2.8-4.6,4.3-6.9s1.4-1.5,2.3,0c2.3,3.5,4.4,7,6.7,10.5a36.8,36.8,0,0,0,7.4,8.8,14.4,14.4,0,0,0,7.1,3.5,11.6,11.6,0,0,0,6.8-1.4c3.9-2,6.9-5.1,9.8-8.2a18.6,18.6,0,0,0,2.1-2.8c.4-.7.9-.7,1.5-.3l12.6,7.9c1,.7.7,1.7.1,2.5-3.6,4.5-7.2,8.9-11.9,12.3a39,39,0,0,1-11,5.9A34.4,34.4,0,0,1,327.7,498.6Z" transform="translate(-93.7 -210.9)"/></svg>