<svg id="fad38a45-b228-40c0-8acb-db5b3f83dc7b" data-name="e7070e48-e862-4e7f-8a65-2d585ab6fe8c" xmlns="http://www.w3.org/2000/svg" viewBox="0 0 420.7 398.1"><defs><style>.aa2603c8-d87d-4bb9-af7f-5e3f06b389b1{fill:#fff;}</style></defs><title>bilibili</title><path class="aa2603c8-d87d-4bb9-af7f-5e3f06b389b1" d="M415.5,108.4c-5.6-19.8-18.6-38.5-37.7-46-11.9-4.6-25-4.7-37.8-4.6-18.3,0-36.7.4-55.1.1-6.2-.1-7.1.3-3.3-4.7,7.2-9.4,17.5-17.4,25.9-25.7,2.8-2.7,5.6-5.5,6.9-9,3.2-8-3.5-18.2-12.1-18.5s-13.8,5.7-19.1,11.2l-31.5,33c-4.5,4.7-9.2,9.2-15,12.1s-19.8,2.6-26.4,2.7-18.5.2-23.5-1.4-9.2-5.7-13-9.7c-11.1-11.6-22.2-23.1-33.2-34.7-4.7-4.9-9.7-10-16.2-12.1S109.6.8,106.8,7c-1.8,3.9-1,8.6,1,12.3a44.6,44.6,0,0,0,8,9.9l15.7,15.5c3.3,3.3,13.5,9.9,8.4,13.1s-16.5,1-21.1,1c-7.2,0-14.8-.9-22-.9-12.6,0-26-1.8-38.3.3C37.4,61.6,18,75.6,8.8,95,.5,112.5.3,132.6.3,151.9L0,276c0,14.3,0,28.6,2.8,42.6,8,38.7,38.5,57.3,76.4,55.9a3.1,3.1,0,0,1,2.3.3c1,.7,1.2,2.1,1.4,3.3,1.9,11.5,13.3,20.6,24.9,19.8s21.6-11.3,21.9-22.9c0-3.5,139.1-.9,151.9-.6,6.9.2,9.8,1.9,12.1,8.2A24.9,24.9,0,0,0,304.4,395a22.3,22.3,0,0,0,13.4,3c8.6-.8,16.3-7.2,19.4-15.2s3.1-8.1,11.5-8c6.5,0,13,.1,19.4-1.4a56.2,56.2,0,0,0,18.8-8.1c20.5-13.6,32.6-39.4,32.6-63.7V202C419.5,171.6,423.9,138.1,415.5,108.4Zm-44,196.9a28.4,28.4,0,0,1-9.4,21.5,19.3,19.3,0,0,1-12.8,5.6c-16,.4-31.9.2-47.8.2H73.4c-8,0-14.3-3.4-19.1-9.5a30.4,30.4,0,0,1-5.5-12.8,21.9,21.9,0,0,1-.3-3.6q0-90.1.1-180.3a26.2,26.2,0,0,1,8-19.2,22.1,22.1,0,0,1,16.2-7.1q135.5.2,270.9,0c5.4,0,10.6.3,15.2,3.4a26.7,26.7,0,0,1,12.5,23.1c.3,27.3.2,54.6.2,81.9,0,32.3,0,64.5-.1,96.8Z" transform="translate(0 0)"/><path class="aa2603c8-d87d-4bb9-af7f-5e3f06b389b1" d="M82.1,209.7c-.4.1-.6-.5-.7-1.1-.5-2.4-1.1-4.8-1.5-7.2-.9-4.2-1.7-8.4-2.5-12.6s-1.3-7.5-2.1-11.2a1.2,1.2,0,0,1,.9-1.4,12.2,12.2,0,0,1,2.6-.6L94,172.7c7.8-1.4,15.4-3.1,23.2-4.4,4.3-.7,8.6-1.8,13-2.7l11.2-2,19.8-3.9c1.4-.3,1.7.2,1.9,1.3.9,4.2,1.7,8.5,2.6,12.8s1.8,9.9,2.8,14.8a18.6,18.6,0,0,0,.7,3.4c.4.7-.6,1.2-1.3,1.3l-10.8,2.1-11.2,2.1-19.8,3.9c-3.9.8-7.9,1.3-11.8,2.1s-10.3,1.9-15.4,3.1-8.8,1.5-13.1,2.6Z" transform="translate(0 0)"/><path class="aa2603c8-d87d-4bb9-af7f-5e3f06b389b1" d="M345.6,177.7l-1.5,8.7c-.9,4.6-1.8,9.3-2.9,13.9-.5,2.6-.7,5.3-1.4,7.9s-.9,1.4-2,1.2l-7.6-1.3-19.7-3.8-13.3-2.7-13.3-2.5c-7.8-1.4-15.4-3.1-23.1-4.5-2.1-.5-4.2-.9-6.4-1.2s-2-.7-1.7-2.2c1.1-5.2,2.1-10.4,3.1-15.6s1.5-7.9,2.2-11.9a16.5,16.5,0,0,0,.7-3.2c0-1,.8-1.1,1.6-.9l13.3,2.7,22.3,4.2,18.9,3.8,13.6,2.5c5.3,1.1,10.6,2.3,15.9,3.1C345.5,176,345.8,176.7,345.6,177.7Z" transform="translate(0 0)"/><path class="aa2603c8-d87d-4bb9-af7f-5e3f06b389b1" d="M234,287.7a27.2,27.2,0,0,1-14.9-4,49.6,49.6,0,0,1-8.1-6.4c-.8-.7-1.3-.8-2.1.1a33.3,33.3,0,0,1-15,9.4,28.6,28.6,0,0,1-10.5.8c-6.7-.6-12.3-3.7-17.5-7.7s-7.8-7.5-11.2-11.7c-.8-1.1-.8-1.9.4-2.6,3.8-2.5,7.7-4.8,11.5-7.4,1.4-.9,2.2-.3,2.9.7a36.2,36.2,0,0,0,9,8.9c3.2,2.2,6.8,3.5,10.7,2.4a15.5,15.5,0,0,0,5.7-3.3c3.9-3.6,6.8-7.9,9.6-12.3,1.4-2.3,2.8-4.6,4.3-6.9s1.4-1.5,2.3,0c2.3,3.5,4.4,7,6.7,10.5a36.8,36.8,0,0,0,7.4,8.8,14.9,14.9,0,0,0,7.1,3.5,12.3,12.3,0,0,0,6.8-1.4c3.9-2,6.9-5.1,9.8-8.2a18.6,18.6,0,0,0,2.1-2.8c.4-.7.9-.7,1.5-.3l12.6,7.9c1,.7.7,1.7.1,2.5-3.6,4.5-7.2,8.9-11.9,12.3a40.2,40.2,0,0,1-11,5.9A33.4,33.4,0,0,1,234,287.7Z" transform="translate(0 0)"/></svg>