<?xml version="1.0" encoding="utf-8"?>
<!-- Generator: Adobe Illustrator 23.0.0, SVG Export Plug-In . SVG Version: 6.00 Build 0)  -->
<svg version="1.1" id="f2e13abd-5ed2-49e7-b92d-172b100707ab"
	 xmlns="http://www.w3.org/2000/svg" xmlns:xlink="http://www.w3.org/1999/xlink" x="0px" y="0px" viewBox="0 0 373.3 376.9"
	 style="enable-background:new 0 0 373.3 376.9;" xml:space="preserve">
<style type="text/css">
	.st0{fill:#FFFFFF;}
</style>
<title>gmlogo</title>
<path class="st0" d="M186.6,0c104-0.1,188.2,84.7,186.6,191.5c-1.5,102.7-83.6,185.8-187.7,185.4S-1.8,292.2,0,185
	C1.7,82.6,83.4,0,186.6,0z M186.8,372.5c101-0.1,182.2-82.4,182.1-184.6S287.1,4.3,186.8,4.3S4.2,86.6,4.3,189.3
	C4.4,290.4,86.3,372.7,186.8,372.5z"/>
<path class="st0" d="M199.4,130.7v66.7h-76.2c-2.2-0.1-3.7,0.4-4.9,2.5l-41.8,70.5l-10.3,17.3c-2.3,3.9-2.4,3.9-7.9,3.5l55.5-93.8
	H66.2V85h133.1v4.6H90v102.8h25.6c1-0.1,2.2-1.4,2.8-2.4l33.7-56.6c0.6-1.1,1.9-2.5,2.9-2.5C169.7,130.6,184.4,130.7,199.4,130.7z
	 M175.7,135.7c-5.4,0-10.5,0.1-15.6-0.1c-2.3-0.3-4.5,0.9-5.4,3L127,185.4l-3.9,6.8h52.6V135.7z"/>
<path class="st0" d="M176.1,204.7h23.3v76.8l0.7,0.2c0.6-0.8,1.2-1.6,1.7-2.5L288,133.8c1.4-2.4,2.9-3.3,5.6-3.2
	c6.8,0.2,13.6,0.1,20.6,0.1v112.4h-23.5V140.7l-0.7-0.2l-13.8,23.3l-73.5,123.8c-1.6,2.8-3.3,4.1-6.6,3.9c-6.6-0.3-13.2-0.1-20-0.1
	L176.1,204.7z"/>
<path class="st0" d="M314.1,290.5h-23.2v-39.7h23.2V290.5z"/>
<path class="st0" d="M280.6,250.5c0,11.1-9,20.1-20.1,20s-20.1-9-20-20.1s9-20.1,20.1-20c11.1,0,20,9,20,20V250.5z M265.5,255.4
	l1.8,1.2c2.2,1.7,5.3,1.4,7.2-0.6c2.1-2.1,2.4-5.4,0.7-7.8c-1.6-2.3-3.7-3.3-6.5-2.3c-2.8,1.1-4.3,4-3.7,6.9
	c0.2,0.9,0.4,1.9,0.7,2.8l-1.9-0.8c-2.9-1.4-5.2-0.6-7,1.7c-1.9,2.4-1.7,5.7,0.4,7.9c2,2.1,4.3,2.6,6.8,1.1c2.5-1.4,3.6-4.4,2.7-7.1
	C266.4,257.4,265.9,256.4,265.5,255.4z M257.7,251.7c0.1-3.2-2.4-5.9-5.6-6.2c-3.1-0.1-5.8,2.7-5.9,6c-0.5,3.2,1.7,6.1,4.9,6.6
	c3.2,0.5,6.1-1.7,6.6-4.9C257.7,252.7,257.8,252.2,257.7,251.7z M267,242.3c0.1-3.2-2.5-5.9-5.7-6.1c-3.1-0.1-5.7,2.7-5.8,6
	c0,3.2,2.5,5.9,5.7,6.2C264.5,248.2,267,245.6,267,242.3z"/>
<path class="st0" d="M160.8,250.6c-0.1,11-8.9,20-19.7,20c-11.1-0.1-20.1-9.1-20-20.2c0.1-11.1,9.1-20.1,20.2-20
	C152,230.5,160.8,239.5,160.8,250.6z M146.8,267c0.9-6.5,1.2-12.5-5.6-16.6c7.2-4.2,6.4-10.2,5.6-16.2h-10.2
	c-0.8,6.3-1.2,12.3,5.9,16.5c-7.7,4-6.4,10.2-5.9,16.3H146.8z M124.2,255.2h10.5V245h-10.5L124.2,255.2z M158.4,245h-10.3v10.3h10.3
	L158.4,245z"/>
</svg>
