<svg id="f2e13abd-5ed2-49e7-b92d-172b100707ab" data-name="a0d1248b-5392-4e2b-bcc1-6f8fadc0c7d7" xmlns="http://www.w3.org/2000/svg" viewBox="0 0 373.3 376.9"><title>gmlogo</title><path d="M186.6,0c104-.1,188.2,84.7,186.6,191.5-1.5,102.7-83.6,185.8-187.7,185.4S-1.8,292.2,0,185C1.7,82.6,83.4,0,186.6,0Zm.2,372.5c101-.1,182.2-82.4,182.1-184.6S287.1,4.3,186.8,4.3,4.2,86.6,4.3,189.3c.1,101.1,82,183.4,182.5,183.2Z" transform="translate(0 0)"/><path d="M199.4,130.7v66.7H123.2c-2.2-.1-3.7.4-4.9,2.5L76.5,270.4,66.2,287.7c-2.3,3.9-2.4,3.9-7.9,3.5l55.5-93.8H66.2V85H199.3v4.6H90V192.4h25.6c1-.1,2.2-1.4,2.8-2.4l33.7-56.6c.6-1.1,1.9-2.5,2.9-2.5C169.7,130.6,184.4,130.7,199.4,130.7Zm-23.7,5c-5.4,0-10.5.1-15.6-.1a5.1,5.1,0,0,0-5.4,3L127,185.4l-3.9,6.8h52.6Z" transform="translate(0 0)"/><path d="M176.1,204.7h23.3v76.8l.7.2a22,22,0,0,0,1.7-2.5L288,133.8c1.4-2.4,2.9-3.3,5.6-3.2,6.8.2,13.6.1,20.6.1V243.1H290.7V140.7l-.7-.2-13.8,23.3L202.7,287.6c-1.6,2.8-3.3,4.1-6.6,3.9-6.6-.3-13.2-.1-20-.1Z" transform="translate(0 0)"/><path d="M314.1,290.5H290.9V250.8h23.2Z" transform="translate(0 0)"/><path d="M280.6,250.5a20.1,20.1,0,1,1,0-.1Zm-15.1,4.9,1.8,1.2a5.4,5.4,0,0,0,7.2-.6,6.1,6.1,0,0,0,.7-7.8c-1.6-2.3-3.7-3.3-6.5-2.3a6,6,0,0,0-3.7,6.9,28.6,28.6,0,0,0,.7,2.8l-1.9-.8c-2.9-1.4-5.2-.6-7,1.7a6,6,0,0,0,.4,7.9c2,2.1,4.3,2.6,6.8,1.1a6,6,0,0,0,2.7-7.1C266.4,257.4,265.9,256.4,265.5,255.4Zm-7.8-3.7a6.1,6.1,0,0,0-5.6-6.2c-3.1-.1-5.8,2.7-5.9,6a5.8,5.8,0,1,0,11.5.2Zm9.3-9.4a6,6,0,0,0-5.7-6.1c-3.1-.1-5.7,2.7-5.8,6a6.3,6.3,0,0,0,5.7,6.2A6.1,6.1,0,0,0,267,242.3Z" transform="translate(0 0)"/><path d="M160.8,250.6c-.1,11-8.9,20-19.7,20a20.1,20.1,0,0,1,.2-40.2C152,230.5,160.8,239.5,160.8,250.6Zm-14,16.4c.9-6.5,1.2-12.5-5.6-16.6,7.2-4.2,6.4-10.2,5.6-16.2H136.6c-.8,6.3-1.2,12.3,5.9,16.5-7.7,4-6.4,10.2-5.9,16.3Zm-22.6-11.8h10.5V245H124.2ZM158.4,245H148.1v10.3h10.3Z" transform="translate(0 0)"/></svg>