<?xml version="1.0" encoding="utf-8"?>
<!-- Generator: Adobe Illustrator 23.0.0, SVG Export Plug-In . SVG Version: 6.00 Build 0)  -->
<svg version="1.1" id="fad38a45-b228-40c0-8acb-db5b3f83dc7b"
	 xmlns="http://www.w3.org/2000/svg" xmlns:xlink="http://www.w3.org/1999/xlink" x="0px" y="0px" viewBox="0 0 420.7 398.1"
	 style="enable-background:new 0 0 420.7 398.1;" xml:space="preserve">
<style type="text/css">
	.st0{fill:#FFFFFF;}
</style>
<title>github</title>
<path class="st0" d="M211.1,4.7c110,0,199.1,89.1,199.1,199.1c0,85.6-54.6,161.6-135.7,188.9c-10,2-13.7-4.2-13.7-9.5
	c0-6.7,0.2-28.1,0.2-54.8c0-18.7-6.2-30.6-13.4-36.8c44.3-5,90.9-21.9,90.9-98.3c0-21.9-7.7-39.6-20.4-53.5c2-5,9-25.4-2-52.8
	c0,0-16.7-5.5-54.8,20.4c-15.9-4.5-32.9-6.7-49.8-6.7c-16.9,0-33.9,2.2-49.8,6.7C123.7,81.9,107,87.1,107,87.1
	c-11,27.4-4,47.8-2,52.8c-12.7,13.9-20.4,31.9-20.4,53.5c0,76.2,46.3,93.4,90.6,98.3c-5.7,5-11,13.7-12.7,26.6
	c-11.5,5.2-40.1,13.7-58-16.4c-3.7-6-14.9-20.7-30.6-20.4c-16.7,0.2-6.7,9.5,0.2,13.2c8.5,4.7,18.2,22.4,20.4,28.1
	c4,11.2,16.9,32.6,67,23.4c0,16.7,0.2,32.4,0.2,37.1c0,5.2-3.7,11.2-13.7,9.5C66.7,365.7,11.9,289.6,11.9,203.9
	C11.9,93.8,101,4.7,211.1,4.7z"/>
</svg>
