<svg id="fac4cffe-85db-4171-8b1d-15874c2d3ec3" data-name="图层 1" xmlns="http://www.w3.org/2000/svg" viewBox="0 0 135 117.9"><defs><style>.b88d1028-e718-4c99-ab8a-56b629fc0306{fill:#fff;fill-rule:evenodd;}</style></defs><title>hdu</title><path class="b88d1028-e718-4c99-ab8a-56b629fc0306" d="M127.8,328.2c-37.1-2.4-60,17.8-54.3,38.3,4.2,15.2,20.8,24.1,37.4,27s33.2,1.7,48.6-2.6c22.3-6.1,42.7-18,48.1-33.4-14.1,18.4-40.2,24.8-61.8,25.5S93.6,378,90,356.6C87,338.3,112.6,328.2,127.8,328.2Z" transform="translate(-72.6 -277.1)"/><path class="b88d1028-e718-4c99-ab8a-56b629fc0306" d="M114.6,290.2s10.8,2.9,18.1,7.9c17.1,11.9,25.9,35.1,15.8,53.9-5.4,10.2-15.3,17.8-25.4,21.9,0,0-6.1,2.1-10.3,3.8-.9.4,20.6-7.5,25.6-20.3,7.4-18.7-3.5-40.8-29.7-43.4Z" transform="translate(-72.6 -277.1)"/><path class="b88d1028-e718-4c99-ab8a-56b629fc0306" d="M149,277.1a48.8,48.8,0,0,1,20.8,27c6.3,20-2.6,43.5-17.1,56.8-8.8,7.1-19.4,11.9-31,15.8,0,0,12.7-6.2,14.9-8.4a39.9,39.9,0,0,0,18.9-25.6c3.4-14.9-3.6-34-15.4-43.8Z" transform="translate(-72.6 -277.1)"/><path class="b88d1028-e718-4c99-ab8a-56b629fc0306" d="M191.2,284.1c9.5,22.9,1.8,45.6-7.7,58.7s-27.5,24.3-48.2,30.8c17.3-8,29-18.4,36.1-36.8,3.7-9.5,6.1-21.9.8-38.6Z" transform="translate(-72.6 -277.1)"/></svg>