<?xml version="1.0" encoding="utf-8"?>
<!-- Generator: Adobe Illustrator 23.0.0, SVG Export Plug-In . SVG Version: 6.00 Build 0)  -->
<svg version="1.1" id="图层_1" xmlns="http://www.w3.org/2000/svg" xmlns:xlink="http://www.w3.org/1999/xlink" x="0px" y="0px"
	 viewBox="0 0 62.2 48" style="enable-background:new 0 0 62.2 48;" xml:space="preserve">
<style type="text/css">
	.st0{opacity:0.9;}
	.st1{fill-rule:evenodd;clip-rule:evenodd;fill:#FFFFFF;}
</style>
<g class="st0">
	<path class="st1" d="M53.8,42.8c3.7-2.7,6.1-6.7,6.1-11.2c0-8.2-7.9-14.8-17.7-14.8c-9.8,0-17.7,6.6-17.7,14.8
		c0,8.2,7.9,14.8,17.7,14.8c2,0,4-0.3,5.8-0.8c0.2,0,0.3-0.1,0.5-0.1c0.3,0,0.6,0.1,0.9,0.3l3.9,2.2c0.1,0.1,0.2,0.1,0.3,0.1
		c0.3,0,0.6-0.3,0.6-0.6l0,0c0-0.1-0.1-0.3-0.1-0.4l-0.8-3c0-0.1-0.1-0.2-0.1-0.4C53.3,43.3,53.5,43,53.8,42.8 M36.3,29.1
		c-1.2,0-2.2-1-2.2-2.2c0-1.2,1-2.2,2.2-2.2c1.2,0,2.2,1,2.2,2.2S37.5,29.1,36.3,29.1 M48.1,29.1c-1.2,0-2.2-1-2.2-2.2
		c0-1.2,0.9-2.2,2.1-2.3c1.2,0,2.2,0.9,2.3,2.1c0,0,0,0.1,0,0.1C50.3,28.1,49.3,29.1,48.1,29.1"/>
	<path class="st1" d="M22.4,0.6C10.6,0.6,1.1,8.5,1.1,18.3c0,5.3,2.9,10.1,7.3,13.4c0.4,0.3,0.6,0.7,0.6,1.2c0,0.2,0,0.3-0.1,0.5
		l-1,3.6c0,0.2-0.1,0.3-0.1,0.5c0,0.4,0.3,0.7,0.7,0.7c0.2,0,0.3-0.1,0.4-0.1l4.7-2.7c0.3-0.2,0.7-0.3,1.1-0.3c0.2,0,0.4,0,0.6,0.1
		c2.6,0.8,5.4,1.1,8.1,0.9c-0.5-1.4-0.7-2.9-0.7-4.3c0-8.9,8.7-16.2,19.4-16.2c0.4,0,0.5,0,0.9,0C41.5,7,33,0.6,22.4,0.6 M15.3,15.1
		c-1.4,0-2.5-1.1-2.5-2.5s1.1-2.5,2.5-2.5c1.4,0,2.5,1.1,2.5,2.5c0,0,0,0,0,0C17.8,14,16.7,15.1,15.3,15.1 M29.4,15.1
		c-1.4,0-2.5-1.1-2.5-2.5v0c0-1.4,1.1-2.5,2.5-2.5c0,0,0,0,0,0c1.4,0,2.5,1.1,2.5,2.5c0,0,0,0,0,0C32,14,30.8,15.1,29.4,15.1
		L29.4,15.1"/>
</g>
</svg>
